<?xml version="1.0"?>
<svg xmlns="http://www.w3.org/2000/svg" height="512px" viewBox="-56 0 480 480.00014" width="512px"><path d="m0 136v272c.046875 39.746094 32.253906 71.953125 72 72h224c39.746094-.046875 71.953125-32.253906 72-72v-272c0-1.816406-.617188-3.582031-1.75-5l-56.28125-70.34375c13.410156-6.484375 20.550781-21.382812 17.207031-35.898438-3.339843-14.515624-16.28125-24.789062-31.175781-24.757812h-224c-15.957031-.046875-29.496094 11.699219-31.703125 27.503906-2.203125 15.804688 7.605469 30.808594 22.96875 35.128906l-61.210937 68c-1.324219 1.472657-2.05859425 3.386719-2.054688 5.367188zm56-104c0-8.835938 7.164062-16 16-16h224c8.835938 0 16 7.164062 16 16s-7.164062 16-16 16h-224c-8.835938 0-16-7.164062-16-16zm120 32h32v16c0 8.835938-7.164062 16-16 16s-16-7.164062-16-16zm48 16v-16h32v48c0 8.835938-7.164062 16-16 16s-16-7.164062-16-16zm-208 59.070312 67.558594-75.070312h76.441406v16c0 17.671875 14.328125 32 32 32 5.632812-.03125 11.15625-1.570312 16-4.449219v4.449219c0 17.671875 14.328125 32 32 32s32-14.328125 32-32v-48h20.160156l59.839844 74.808594v269.191406c-.035156 30.914062-25.085938 55.964844-56 56h-224c-30.914062-.035156-55.964844-25.085938-56-56zm0 0" fill="#f09826"/><path d="m116.230469 432h135.539062c37.601563.023438 68.125-30.398438 68.230469-68v-180c0-4.417969-3.582031-8-8-8h-24c-10.867188 1.152344-21.847656-.5-31.894531-4.800781-12.21875-5.09375-25.507813-7.082031-38.679688-5.78125-13.21875.726562-26.046875 4.71875-37.335937 11.621093-9.265625 5.804688-19.867188 9.128907-30.785156 9.65625-10.859376 1.160157-21.835938-.492187-31.871094-4.800781-12.105469-5.078125-25.273438-7.101562-38.34375-5.894531h-23.089844c-4.417969 0-8 3.582031-8 8v180c.105469 37.601562 30.628906 68.023438 68.230469 68zm-52.230469-240h15.375.617188c10.859374-1.167969 21.835937.488281 31.871093 4.800781 12.210938 5.097657 25.492188 7.085938 38.65625 5.792969 13.214844-.734375 26.042969-4.730469 37.335938-11.632812 9.269531-5.800782 19.871093-9.125 30.792969-9.65625 10.863281-1.15625 21.84375.5 31.886718 4.800781 12.007813 5.082031 25.089844 7.109375 38.074219 5.894531h15.390625v172c-.097656 28.769531-23.460938 52.03125-52.230469 52h-135.539062c-28.769531.03125-52.132813-23.230469-52.230469-52zm0 0" fill="#f09826"/><path d="m163.558594 382.65625 24 16c2.691406 1.792969 6.191406 1.792969 8.882812 0l19.558594-13.054688 19.558594 13.039063c2.691406 1.792969 6.191406 1.792969 8.882812 0l24-16c2.21875-1.480469 3.554688-3.972656 3.558594-6.640625v-24c0-2.675781-1.335938-5.171875-3.558594-6.65625l-24-16c-2.691406-1.792969-6.191406-1.792969-8.882812 0l-19.558594 13.054688-19.558594-13.039063c-2.691406-1.792969-6.191406-1.792969-8.882812 0l-24 16c-2.21875 1.480469-3.554688 3.972656-3.558594 6.640625v24c0 2.675781 1.335938 5.171875 3.558594 6.65625zm76.441406-37.054688 16 10.664063v15.4375l-16 10.695313-16-10.664063v-15.4375zm-64 10.664063 16-10.664063 16 10.664063v15.4375l-16 10.695313-16-10.664063zm0 0" fill="#f09826"/></svg>
